<!DOCTYPE svg PUBLIC "-//W3C//DTD SVG 1.1//EN" "http://www.w3.org/Graphics/SVG/1.1/DTD/svg11.dtd">
<!-- Uploaded to: SVG Repo, www.svgrepo.com, Transformed by: SVG Repo Mixer Tools -->
<svg fill="#000000" width="800px" height="800px" viewBox="0 0 24 24" id="medal-4" data-name="Flat Color" xmlns="http://www.w3.org/2000/svg" class="icon flat-color">
<g id="SVGRepo_bgCarrier" stroke-width="0"/>
<g id="SVGRepo_tracerCarrier" stroke-linecap="round" stroke-linejoin="round"/>
<g id="SVGRepo_iconCarrier">
<path id="secondary" d="M19.82,2.43A1,1,0,0,0,19,2H13.86a1,1,0,0,0-.94.65L12,5.09l-.92-2.44A1,1,0,0,0,10.14,2H5a1,1,0,0,0-.82.43,1,1,0,0,0-.12.91L6.23,9.29a1,1,0,0,0,.71.63l.23,0a1,1,0,0,0,.69-.27A6,6,0,0,1,11.71,8,1.08,1.08,0,0,0,12,7.93a1.08,1.08,0,0,0,.29.09,6,6,0,0,1,3.85,1.65,1,1,0,0,0,.69.27l.23,0a1,1,0,0,0,.71-.63l2.17-5.95A1,1,0,0,0,19.82,2.43Z" style="fill: #F97316;"/>
<circle id="primary" cx="12" cy="14" r="8" style="fill: #000000;"/>
<path id="secondary-2" data-name="secondary" d="M13,16V11a1,1,0,0,0-.62-.92,1,1,0,0,0-1.09.21l-1,1a1,1,0,0,0,0,1.42A1,1,0,0,0,11,13v3a1,1,0,0,0,0,2h2a1,1,0,0,0,0-2Z" style="fill: #F97316;"/>
</g>
</svg>