<svg width="800" height="800" viewBox="0 0 800 800" fill="none" xmlns="http://www.w3.org/2000/svg">
<path d="M660.667 81C657.603 76.5845 653.518 72.975 648.759 70.4793C643.999 67.9836 638.707 66.6755 633.333 66.6667H462C455.189 66.6446 448.535 68.7093 442.933 72.5829C437.331 76.4566 433.05 81.9533 430.667 88.3333L400 169.667L369.333 88.3333C366.95 81.9533 362.669 76.4566 357.067 72.5829C351.465 68.7093 344.811 66.6446 338 66.6667H166.667C161.293 66.6755 156 67.9836 151.241 70.4793C146.482 72.975 142.396 76.5845 139.333 81C136.293 85.3694 134.343 90.4033 133.647 95.6806C132.952 100.958 133.53 106.325 135.333 111.333L207.667 309.667C209.563 314.854 212.719 319.488 216.849 323.154C220.98 326.819 225.957 329.401 231.333 330.667H239C247.536 330.722 255.769 327.501 262 321.667C296.782 288.512 342.337 268.988 390.333 266.667C393.648 266.34 396.901 265.555 400 264.333C403.065 265.784 406.319 266.794 409.667 267.333C457.663 269.655 503.218 289.179 538 322.333C544.231 328.168 552.464 331.389 561 331.333H568.667C574.042 330.068 579.019 327.486 583.15 323.82C587.281 320.155 590.437 315.52 592.333 310.333L664.667 112C666.585 106.899 667.223 101.407 666.525 96.0021C665.828 90.5977 663.816 85.4466 660.667 81Z" fill="#AFAFAF"/>
<path d="M400 733.333C547.276 733.333 666.667 613.943 666.667 466.667C666.667 319.391 547.276 200 400 200C252.724 200 133.333 319.391 133.333 466.667C133.333 613.943 252.724 733.333 400 733.333Z" fill="black"/>
<path d="M402.764 331.935C415.288 331.935 426.259 333.653 435.68 337.088C445.211 340.413 453.135 345.123 459.452 351.219C465.769 357.203 470.535 364.407 473.748 372.83C476.962 381.142 478.569 390.34 478.569 400.425C478.569 407.075 477.627 413.226 475.743 418.878C473.97 424.53 471.587 429.684 468.595 434.338C465.714 438.993 462.389 443.204 458.621 446.972C454.853 450.741 451.029 454.065 447.15 456.947C437.841 463.818 427.368 469.359 415.731 473.571C411.852 475.122 407.973 477.006 404.094 479.223C400.326 481.329 396.946 483.822 393.954 486.704C390.961 489.474 388.523 492.744 386.639 496.512C384.755 500.169 383.813 504.381 383.813 509.146V519.453H441.664C446.319 519.453 450.974 519.675 455.628 520.118C460.283 520.561 464.494 521.559 468.263 523.11C472.031 524.662 475.078 526.989 477.406 530.092C479.733 533.085 480.897 537.185 480.897 542.394C480.897 547.714 479.733 551.925 477.406 555.028C475.078 558.131 472.031 560.514 468.263 562.176C464.494 563.839 460.283 564.892 455.628 565.335C450.974 565.778 446.319 566 441.664 566H358.877C353.336 566 348.736 565.113 345.079 563.34C341.533 561.456 338.707 559.129 336.601 556.358C334.495 553.477 332.999 550.318 332.112 546.882C331.337 543.336 330.949 539.845 330.949 536.409V509.811C330.949 501.277 332.334 493.298 335.105 485.873C337.986 478.336 341.976 471.521 347.074 465.425C352.283 459.219 358.434 453.677 365.527 448.801C372.73 443.925 380.71 439.769 389.465 436.333C398.22 432.898 405.202 429.628 410.411 426.525C415.62 423.311 419.61 420.208 422.38 417.216C425.262 414.112 427.146 411.009 428.033 407.906C428.919 404.803 429.363 401.645 429.363 398.431C429.363 392.668 428.365 388.124 426.37 384.799C424.486 381.474 422.103 379.036 419.222 377.484C416.451 375.822 413.514 374.825 410.411 374.492C407.419 374.049 404.87 373.827 402.764 373.827C397.223 373.827 392.79 374.658 389.465 376.321C386.14 377.872 383.591 379.867 381.818 382.305C380.156 384.743 379.047 387.459 378.493 390.451C378.05 393.333 377.828 396.103 377.828 398.763C377.828 403.085 376.997 406.798 375.335 409.901C373.672 412.893 371.567 415.332 369.018 417.216C366.579 419.1 363.864 420.485 360.872 421.372C357.99 422.258 355.331 422.702 352.892 422.702C345.356 422.702 339.261 420.651 334.606 416.551C329.951 412.339 327.624 406.964 327.624 400.425C327.624 397.544 327.956 393.831 328.621 389.287C329.286 384.743 330.561 379.923 332.445 374.825C334.329 369.727 336.989 364.629 340.424 359.531C343.86 354.432 348.348 349.833 353.89 345.733C359.431 341.632 366.192 338.307 374.171 335.758C382.151 333.209 391.682 331.935 402.764 331.935Z" fill="#AFAFAF"/>
</svg>
