<svg width="800" height="800" viewBox="0 0 800 800" fill="none" xmlns="http://www.w3.org/2000/svg">
<path d="M660.667 81C657.603 76.5845 653.518 72.975 648.759 70.4793C643.999 67.9836 638.707 66.6755 633.333 66.6667H462C455.189 66.6446 448.535 68.7093 442.933 72.5829C437.331 76.4566 433.05 81.9533 430.667 88.3333L400 169.667L369.333 88.3333C366.95 81.9533 362.669 76.4566 357.067 72.5829C351.465 68.7093 344.811 66.6446 338 66.6667H166.667C161.293 66.6755 156 67.9836 151.241 70.4793C146.482 72.975 142.396 76.5845 139.333 81C136.293 85.3694 134.343 90.4033 133.647 95.6806C132.952 100.958 133.53 106.325 135.333 111.333L207.667 309.667C209.563 314.854 212.719 319.488 216.849 323.154C220.98 326.819 225.957 329.401 231.333 330.667H239C247.536 330.722 255.769 327.501 262 321.667C296.782 288.512 342.337 268.988 390.333 266.667C393.648 266.34 396.901 265.555 400 264.333C403.065 265.784 406.319 266.794 409.667 267.333C457.663 269.655 503.218 289.179 538 322.333C544.231 328.168 552.464 331.389 561 331.333H568.667C574.042 330.068 579.019 327.486 583.15 323.82C587.281 320.155 590.437 315.52 592.333 310.333L664.667 112C666.585 106.899 667.223 101.407 666.525 96.0021C665.828 90.5977 663.816 85.4466 660.667 81Z" fill="#AFAFAF"/>
<path d="M400 733.333C547.276 733.333 666.667 613.943 666.667 466.667C666.667 319.391 547.276 200 400 200C252.724 200 133.333 319.391 133.333 466.667C133.333 613.943 252.724 733.333 400 733.333Z" fill="black"/>
<path d="M401.102 381.807V379.479H357.88C354.111 379.479 350.177 379.258 346.077 378.814C342.087 378.371 338.43 377.374 335.105 375.822C331.78 374.27 329.009 371.943 326.793 368.84C324.687 365.737 323.634 361.525 323.634 356.206C323.634 350.997 324.687 346.896 326.793 343.904C329.009 340.801 331.78 338.473 335.105 336.922C338.43 335.37 342.087 334.373 346.077 333.93C350.177 333.486 354.111 333.265 357.88 333.265H432.022C436.455 333.265 440.39 333.985 443.825 335.426C447.372 336.867 450.309 338.806 452.636 341.244C455.074 343.572 456.903 346.287 458.122 349.39C459.341 352.493 459.951 355.652 459.951 358.866C459.951 360.75 459.784 362.578 459.452 364.351C459.23 366.125 458.621 367.842 457.623 369.505L427.7 419.377C432.798 421.482 437.785 424.309 442.662 427.855C447.538 431.291 451.86 435.668 455.628 440.988C459.507 446.308 462.555 452.625 464.772 459.939C467.099 467.143 468.263 475.455 468.263 484.875C468.263 495.514 467.099 504.99 464.772 513.302C462.555 521.503 459.507 528.652 455.628 534.747C451.86 540.842 447.372 545.996 442.163 550.207C437.065 554.308 431.579 557.633 425.705 560.182C419.942 562.731 413.958 564.559 407.751 565.668C401.545 566.776 395.45 567.33 389.465 567.33C384.921 567.33 380.045 566.887 374.836 566C369.627 565.113 364.418 563.728 359.209 561.844C354.111 559.96 349.18 557.688 344.414 555.028C339.759 552.258 335.603 548.988 331.946 545.22C328.289 541.452 325.352 537.241 323.135 532.586C321.03 527.931 319.977 522.778 319.977 517.126C319.977 514.355 320.365 511.751 321.141 509.312C321.916 506.763 323.08 504.547 324.632 502.663C326.294 500.668 328.344 499.116 330.783 498.008C333.221 496.789 336.158 496.179 339.593 496.179C344.137 496.179 348.348 497.454 352.227 500.003C356.217 502.552 359.542 506.486 362.202 511.806C362.867 513.025 363.864 514.41 365.194 515.962C366.635 517.513 368.463 518.954 370.68 520.284C373.007 521.614 375.778 522.778 378.992 523.775C382.206 524.662 385.919 525.105 390.13 525.105C396.558 525.105 401.822 524.108 405.923 522.113C410.134 520.007 413.459 517.292 415.897 513.967C418.335 510.642 419.998 506.874 420.884 502.663C421.882 498.451 422.38 494.185 422.38 489.862C422.38 484.875 421.549 480.276 419.887 476.064C418.224 471.853 415.953 468.196 413.071 465.093C410.3 461.989 407.086 459.607 403.429 457.944C399.883 456.171 396.225 455.284 392.457 455.284C387.138 455.284 382.815 453.677 379.491 450.464C376.166 447.25 374.504 442.872 374.504 437.331C374.504 435.003 374.947 432.454 375.833 429.684C376.72 426.802 378.161 423.588 380.156 420.042L401.102 381.807Z" fill="#AFAFAF"/>
</svg>
