<svg width="800" height="800" viewBox="0 0 800 800" fill="none" xmlns="http://www.w3.org/2000/svg">
<g clip-path="url(#clip0_10832_5413)">
<path d="M400 139.2C320.4 139.2 255.6 204 255.6 283.6C255.6 363.2 320.4 428 400 428C479.6 428 544.4 363.2 544.4 283.6C544.4 204 479.6 139.2 400 139.2ZM400 378C348 378 305.6 335.6 305.6 283.6C305.6 231.6 348 189.2 400 189.2C452 189.2 494.4 231.6 494.4 283.6C494.4 335.6 452 378 400 378Z" fill="#6A6A6A"/>
<path d="M532.4 476L499.6 494.8C511.2 489.6 522 483.2 532.4 476ZM300.4 495.2L267.6 476.4C278 483.2 288.8 489.6 300.4 495.2ZM559.6 518.4L522.4 540C535.2 533.6 547.6 526.4 559.6 518.4ZM499.6 495.2C469.2 509.6 435.6 517.6 400 517.6C364.4 517.6 330.4 509.6 300.4 495.2L372.8 537.2L358.4 564.8C372 566.8 386 568 400 568C414 568 428 566.8 441.6 564.8L427.2 537.2L499.6 495.2Z" fill="#AFAFAF"/>
<path d="M559.6 518.4C583.6 502 604.8 482 622.8 459.6L608.8 432.4L532.8 476.4C522.4 483.6 511.6 490 500 495.2L427.6 537.2L442 564.8C470.4 560.4 497.6 552 522.8 540L559.6 518.4Z" fill="#AFAFAF"/>
<path d="M622.4 459.6C604.4 482.4 583.2 502 559.2 518.4L588 502L653.6 628L582.4 619.6L557.2 679.2L493.2 556.8L522 540C496.8 552 469.6 560.4 441.2 564.8L562 796.4L614 673.6L741.6 688.4L622.4 459.6ZM300.4 495.2C288.8 489.6 278 483.6 267.6 476.4L191.6 432.4L177.6 459.6C195.6 482.4 216.8 502 240.8 518.4L277.6 539.6C302.8 551.6 330 560.4 358.8 564.4L373.2 536.8L300.4 495.2ZM240.4 518.4C252 526.4 264.4 533.6 277.2 539.6L240.4 518.4Z" fill="#AFAFAF"/>
<path d="M306.4 556.4L242.4 678.8L217.2 619.2L146 627.6L211.6 501.6L240.4 518.4C216.4 502 195.2 482 177.2 459.6L58 688L185.6 673.2L237.6 796L358.4 564.4C329.6 560 302.4 551.6 277.2 539.6L306.4 556.4ZM267.6 476.4C206.4 434 166.4 363.6 166.4 284C166.4 155.2 271.2 50.4 400 50.4C528.8 50.4 633.6 155.2 633.6 284C633.6 363.6 593.6 434 532.4 476.4L608.4 432.4L622.4 459.6C660.8 411.2 683.6 350.4 683.6 284C683.6 127.2 556.4 0 400 0C243.6 0 116.4 127.2 116.4 283.6C116.4 350 139.2 410.8 177.6 459.2L191.6 432L267.6 476.4Z" fill="#AFAFAF"/>
</g>
<defs>
<clipPath id="clip0_10832_5413">
<rect width="800" height="800" fill="white"/>
</clipPath>
</defs>
</svg>
