<?xml version="1.0" encoding="utf-8"?>
<!-- Uploaded to: SVG Repo, www.svgrepo.com, Generator: SVG Repo Mixer Tools -->
<svg width="800px" height="800px" viewBox="0 0 1024 1024" class="icon"  version="1.1" xmlns="http://www.w3.org/2000/svg"><path d="M298.666667 469.333333c-42.666667 0-128-149.333333-128-149.333333H64v21.333333h10.666667c64 21.333333 53.333333 85.333333 74.666666 213.333334s128 149.333333 128 149.333333 64-234.666667 21.333334-234.666667zM704 341.354667C704 288.554667 639.381333 234.666667 533.333333 234.666667s-170.666667 53.888-170.666666 106.688 64.618667 84.437333 170.666666 84.437333 170.666667-31.637333 170.666667-84.437333z" fill="#0097A7" /><path d="M766.784 326.762667l-93.333333 29.077333 19.029333 61.098667 93.354667-29.077334a85.504 85.504 0 0 1 106.944 56.426667c0.106667 0.341333 8.213333 36.48-1.642667 96.896l-2.709333 17.066667c-10.730667 68.650667-17.621333 93.653333-52.352 104.448l-61.098667 19.050666 19.029333 61.098667 61.098667-19.050667c75.882667-23.616 86.4-90.752 96.576-155.669333l2.624-16.661333c12.416-76.245333 0.874667-122.474667-0.490667-126.549334-24.512-78.592-108.416-122.645333-187.029333-98.154666z" fill="#0097A7" /><path d="M533.333333 192.021333m-42.666666 0a42.666667 42.666667 0 1 0 85.333333 0 42.666667 42.666667 0 1 0-85.333333 0Z" fill="#0097A7" /><path d="M725.333333 810.666667H362.666667c42.666667 0 42.666667 64 42.666666 64h277.333334s0-64 42.666666-64z" fill="#4DD0E1" /><path d="M341.333333 298.666667s-85.333333 213.333333-85.333333 362.666666 105.066667 192 234.666667 192h106.666666c129.6 0 234.666667-42.666667 234.666667-192s-106.666667-362.666667-106.666667-362.666666H341.333333z" fill="#4DD0E1" /></svg>