<svg width="800" height="800" viewBox="0 0 800 800" fill="none" xmlns="http://www.w3.org/2000/svg">
<path d="M405.197 164.272H672V212.634H405.197V164.272Z" fill="#AFAFAF"/>
<path d="M320.522 430.264H166.476C145.253 430.264 128 448.325 128 470.541V631.723C128 653.94 145.253 672 166.476 672H320.45C341.673 672 358.926 653.94 358.926 631.723V470.541C358.998 448.325 341.745 430.264 320.522 430.264ZM312.798 601.27C312.798 613.663 303.198 623.713 291.359 623.713H195.639C183.8 623.713 174.2 613.663 174.2 601.27V501.07C174.2 488.677 183.8 478.626 195.639 478.626H291.431C303.27 478.626 312.871 488.677 312.871 501.07V601.27H312.798Z" fill="#6B6B6B"/>
<path d="M405.197 466.536H672V514.898H405.197V466.536Z" fill="#AFAFAF"/>
<path d="M320.522 128H166.476C145.253 128 128 146.06 128 168.277V329.459C128 351.676 145.253 369.736 166.476 369.736H320.45C341.673 369.736 358.926 351.676 358.926 329.459V168.277C358.998 146.06 341.745 128 320.522 128ZM312.798 299.006C312.798 311.399 303.198 321.449 291.359 321.449H195.639C183.8 321.449 174.2 311.399 174.2 299.006V198.805C174.2 186.413 183.8 176.362 195.639 176.362H291.431C303.27 176.362 312.871 186.413 312.871 198.805V299.006H312.798Z" fill="#C7C6C5"/>
<path d="M405.197 285.177H672V333.54H405.197V285.177ZM405.197 587.442H672V635.804H405.197V587.442Z" fill="#AFAFAF"/>
<path d="M236.284 204L218 219.923V237.601L236.284 221.679V293.966H252.751V204H236.284Z" fill="#C7C6C5"/>
<path d="M263.103 552.799C264.617 551.043 266.009 549.348 267.22 547.774C268.431 546.26 269.46 544.686 270.247 543.052C271.034 541.478 271.639 539.783 272.063 538.087C272.487 536.332 272.729 534.394 272.729 532.215C272.729 528.159 272.002 524.526 270.671 521.257C269.339 517.988 267.462 515.263 265.041 513.023C262.68 510.783 259.774 509.088 256.384 507.877C253.054 506.666 249.361 506 245.426 506C241.551 506 237.919 506.606 234.589 507.816C231.259 508.966 228.353 510.722 225.871 512.962C223.389 515.263 221.452 517.987 220.059 521.256C218.666 524.525 218 528.158 218 532.335H234.407C234.407 530.095 234.71 528.278 235.375 526.826C235.981 525.312 236.828 524.162 237.857 523.254C238.947 522.406 240.097 521.74 241.429 521.377C242.7 521.014 244.032 520.832 245.425 520.832C248.936 520.832 251.661 521.861 253.477 523.92C255.354 525.978 256.262 528.703 256.262 532.032C256.262 534.151 255.899 536.028 255.172 537.602C254.506 539.236 253.295 540.992 251.6 542.93L218 581.979V596.751H272.729V581.979H237.917L263.103 552.799Z" fill="#6B6B6B"/>
</svg>
